<svg xmlns="http://www.w3.org/2000/svg" data-name="Layer 1" viewBox="0 0 486.78 482.81">
    <path d="     M243.46 431.37c106.19 0 191.87-85.3 191.87-190a188.73 188.73 0 00-6-47.41q.09 2.91.09 5.85c0 99.63-81.68 180.07-182 180.07a15.83 15.83 0 010-31.66c83.24 0 150.39-66.62 150.39-148.41q0-3.53-.17-7c-16.24 62.78-78.48 107.94-150.22 107.94a15.83 15.83 0 110-31.66c69.37 0 122.69-50.25 122.69-108.83 0-52.29-42.49-98-100.95-107.15a196.09 196.09 0 00-25.77-1.62h-.06c-106.2 0-191.88 85.28-191.88 190a188.05 188.05 0 006.12 47.74c-.12-2.71-.19-5.43-.19-8.17 0-100.89 83.63-182 186-182a15.83 15.83 0 110 31.66c-85.6 0-154.35 67.67-154.35 150.38q0 4.51.27 9c16.71-63 80.81-107.9 154.08-107.9a15.83 15.83 0 110 31.66c-72 0-126.64 50.65-126.64 108.83s54.64 108.84 126.64 108.84z M243.39 0C109.19 0 0 107.86 0 241.41s109.16 241.37 243.32 241.4h.07c134.19 0 243.39-107.86 243.39-241.4S377.61.02 243.43 0z "
          fill="#000" fill-rule="evenodd"/>
</svg>
