<svg xmlns="http://www.w3.org/2000/svg" fill="none" viewBox="40 10 175 175">
    <path d="M148.469 63.3422C142.265 64.8554 135.91 65.4606 129.554 65.4606C123.048 65.4606 116.693 64.704 110.64 63.3422C115.634 55.3227 122.14 48.2109 129.554 42.3097C136.969 48.2109 143.475 55.3227 148.469 63.3422ZM205.514 17.0405C197.645 14.9221 189.626 13.8629 181.606 14.0142C163.146 14.0142 144.988 19.4615 129.554 29.7508C114.121 19.4615 96.1143 13.8629 77.5028 14.0142C69.1806 14.0142 61.161 15.0734 53.5954 17.0405C50.4178 17.7971 47.2402 18.8563 44.214 20.0668C44.0627 20.2181 43.9114 20.3694 44.0627 20.5207C45.4245 23.3956 46.9376 26.2705 48.4507 28.9942C48.6021 29.1455 48.7534 29.1455 48.9047 29.1455C58.1348 25.8166 67.8188 24.1522 77.5028 24.1522C93.3907 24.1522 108.219 28.5402 120.93 36.2572C112.91 43.0663 105.95 51.2372 100.654 60.316C97.7788 65.0067 95.5091 70 93.542 75.1446C89.6079 85.5852 87.6408 96.7823 87.6408 107.828C87.6408 134.459 98.8379 158.518 116.693 175.616C118.055 176.978 119.568 178.34 121.081 179.551C122.291 180.61 123.502 181.518 124.712 182.425C126.226 183.636 127.89 184.846 129.554 185.906C129.706 186.057 129.857 186.057 130.008 185.906C131.673 184.846 133.186 183.636 134.85 182.425C136.061 181.518 137.271 180.61 138.482 179.551C139.995 178.34 141.508 176.978 142.87 175.616C160.725 158.518 171.771 134.459 171.771 107.828C171.771 94.5126 168.896 81.3484 163.449 69.2434C162.843 68.0329 162.238 66.6711 161.633 65.4606C160.725 63.6449 159.666 61.8291 158.607 60.1647C153.159 51.0859 146.35 42.915 138.331 36.1059C151.495 28.2377 166.475 24.0009 181.757 24.0009C191.441 24.0009 201.277 25.6653 210.356 28.9942C210.507 28.9942 210.658 28.9942 210.809 28.8429C212.474 26.1193 213.836 23.2443 215.198 20.5207C215.349 20.3694 215.198 20.0668 215.046 20.0668C211.869 18.8563 208.691 17.7971 205.514 17.0405L205.514 17.0405Z"
          fill="#000" />
    <path d="M161.33 107.978C161.33 130.221 152.705 150.497 138.482 165.477C135.909 157.306 134.699 148.833 134.699 140.359C134.699 118.116 143.324 97.8403 157.547 82.8604C159.968 90.7286 161.33 99.2022 161.33 107.978"
          fill="#666" />
    <path d="M124.561 140.209C124.561 148.985 123.199 157.459 120.778 165.327C106.101 149.742 97.9299 129.163 97.9299 107.828C97.9299 99.0517 99.2917 90.5782 101.864 82.71C116.39 98.2952 124.561 118.874 124.561 140.209Z"
          fill="#aaa" />
</svg>