<svg xmlns="http://www.w3.org/2000/svg" width="145" height="160" viewBox="0 0 145 160" fill="none">
    <path d="M112.222 33.6379C102.302 36.9492 97.5252 42.8884 94.2708 52.1388C93.431 54.6091 91.3314 57.3421 88.9694 59.1817L97.1052 67.9066L71.2805 49.8262L0 0C0 0 5.14395 33.4277 6.92859 45.7266C8.18833 54.3988 10.3404 58.2882 17.164 62.2302L19.8935 63.7018L31.6511 69.9038L24.67 66.2772L56.8984 83.8846L56.6885 84.3576L21.993 68.2745C23.8302 74.5816 27.3994 86.7228 28.9216 92.0838C30.5488 97.8653 32.3859 99.9677 38.0023 102.018L48.3427 105.802L54.7464 103.279L46.6105 108.693L5.93129 160.358C32.9633 135.235 55.8486 126.3 72.5927 118.994C93.9559 109.744 106.816 103.805 115.214 82.4655C121.198 67.4861 125.869 48.302 131.801 40.8911L144.451 24.7029C144.451 24.7029 118.258 31.6407 112.222 33.6379Z"
          fill="#000"/>
</svg>
