<svg xmlns="http://www.w3.org/2000/svg" width="308" height="326" viewBox="0 0 308 326" fill="none">
    <path d="M306.974 10.9017L299.346 5.19527L284.27 21.3339L272.183 3.87493L265.23 7.06744L274.797 31.4735L270.367 36.216L236.028 0L228.245 3.85641L258.782 69.4898L230.169 79.5494H229.487L213.975 61.1026L198.451 79.5652H108.521L92.9966 61.1026L77.4406 79.6031H76.9604L48.1897 69.4885L78.7288 3.85641L70.9454 0L36.6051 36.2151L32.1752 31.4726L41.7435 7.06655L34.7906 3.87401L22.7039 21.333L7.62807 5.19527L0 10.9017L23.4697 50.0686L11.3912 62.8063L15.6141 95.0447L43.5877 105.729L43.5322 119.668H17.043V125.684L27.2966 140.311L43.5322 146.188V240.805L85.03 302.565L94.5406 325.72L109.486 303.924L124.977 325.72L138.539 303.924L153.486 325.72L168.432 303.924L181.995 325.72L197.485 303.924L212.43 325.72L221.941 302.565L263.439 240.805V146.188L279.674 140.311L289.928 125.684V119.668H263.439L263.479 105.693L291.357 95.0454L295.58 62.8072L283.501 50.0695L306.974 10.9017ZM185.788 264.93H99.6503L110.417 243.011L121.185 264.93L131.951 250.24L142.718 264.93L153.486 250.239L164.253 264.93L175.021 250.24L185.788 264.93L196.554 243.011L207.322 264.93H185.788ZM238.521 164.632L193.731 179.355L191.801 220.899L153.438 229.4L115.076 220.899L113.146 179.355L68.3558 164.632V142.455L126.259 158.862L125.553 214.873H181.322L180.617 158.862L238.52 142.455L238.521 164.632Z"
          fill="#000"/>
</svg>
